<?xml version="1.0" encoding="UTF-8"?> <svg xmlns="http://www.w3.org/2000/svg" viewBox="0 0 437.78 163.66"><g id="Layer_2" data-name="Layer 2"><g id="Layer_1-2" data-name="Layer 1"><polygon points="146.96 0 164.64 163.66 219.19 163.66 201.51 0 146.96 0"></polygon><polygon points="219.19 163.66 273.74 163.66 291.42 0 236.87 0 219.19 163.66"></polygon><polygon points="301.41 54.56 301.41 101.3 301.41 109.11 301.41 163.66 355.96 163.66 355.96 109.11 355.96 101.3 355.96 54.56 301.41 54.56"></polygon><path d="M383.23,0H301.41A54.55,54.55,0,0,0,356,54.55h27.27v54.55a54.55,54.55,0,0,0,54.55-54.55h0V0Z"></path><path d="M356,109.11h0a54.55,54.55,0,0,0,54.55,54.55h27.27V109.11H356Z"></path><rect width="54.55" height="54.55"></rect><polygon points="81.83 109.11 81.83 109.11 81.83 163.66 136.38 163.66 136.38 109.11 136.38 109.11 136.38 54.56 81.83 54.56 81.83 109.11"></polygon><path d="M136.38,0H81.83V54.55A54.55,54.55,0,0,0,136.38,0Z"></path><path d="M0,109.11v54.55H27.28a54.55,54.55,0,0,0,54.55-54.55H0Z"></path></g></g></svg> 